<svg xmlns="http://www.w3.org/2000/svg" xmlns:xlink="http://www.w3.org/1999/xlink" width="1200" zoomAndPan="magnify" viewBox="0 0 900 179.999997" height="240" preserveAspectRatio="xMidYMid meet" version="1.0"><defs><clipPath id="7a10df4bbe"><path d="M 0.75 20 L 899 20 L 899 176.9375 L 0.75 176.9375 Z M 0.75 20 " clip-rule="nonzero"/></clipPath></defs><g clip-path="url(#7a10df4bbe)"><path fill="#f5ca43" d="M 892.363281 28.613281 C 880.117188 20.863281 862.210938 20.316406 848.746094 21.167969 C 581.359375 38.472656 287.574219 85.300781 25.824219 151.441406 C 17.265625 153.613281 -13.433594 178.152344 8.507812 177.160156 C 16.292969 176.804688 44.214844 166.097656 64.898438 160.871094 C 130.410156 143.96875 373.34375 78.207031 762.449219 61.589844 C 760.363281 67.359375 766.160156 73.148438 787.085938 79.035156 C 830.804688 87.710938 856.148438 70.878906 892.847656 47.078125 C 901.773438 41.617188 900.3125 33.648438 892.34375 28.589844 Z M 892.363281 28.613281 " fill-opacity="1" fill-rule="nonzero"/></g></svg>